<?xml version="1.0" encoding="UTF-8" standalone="no"?>
<!-- Created with Inkscape (http://www.inkscape.org/) -->

<svg
   xmlns:dc="http://purl.org/dc/elements/1.1/"
   xmlns:cc="http://creativecommons.org/ns#"
   xmlns:rdf="http://www.w3.org/1999/02/22-rdf-syntax-ns#"
   xmlns:svg="http://www.w3.org/2000/svg"
   xmlns="http://www.w3.org/2000/svg"
   xmlns:sodipodi="http://sodipodi.sourceforge.net/DTD/sodipodi-0.dtd"
   xmlns:inkscape="http://www.inkscape.org/namespaces/inkscape"
   width="11.643058mm"
   height="19.493311mm"
   viewBox="0 0 11.643058 19.493311"
   version="1.1"
   id="svg956"
   inkscape:version="0.92.3 (2405546, 2018-03-11)"
   sodipodi:docname="cirill_logo.svg">
  <defs
     id="defs950" />
  <sodipodi:namedview
     id="base"
     pagecolor="#ffffff"
     bordercolor="#666666"
     borderopacity="1.0"
     inkscape:pageopacity="0.0"
     inkscape:pageshadow="2"
     inkscape:zoom="3.959798"
     inkscape:cx="-15.192539"
     inkscape:cy="76.982809"
     inkscape:document-units="mm"
     inkscape:current-layer="layer1"
     showgrid="false"
     fit-margin-top="0"
     fit-margin-left="0"
     fit-margin-right="0"
     fit-margin-bottom="0"
     inkscape:window-width="1920"
     inkscape:window-height="1137"
     inkscape:window-x="1912"
     inkscape:window-y="-8"
     inkscape:window-maximized="1" />
  <metadata
     id="metadata953">
    <rdf:RDF>
      <cc:Work
         rdf:about="">
        <dc:format>image/svg+xml</dc:format>
        <dc:type
           rdf:resource="http://purl.org/dc/dcmitype/StillImage" />
        <dc:title></dc:title>
      </cc:Work>
    </rdf:RDF>
  </metadata>
  <g
     inkscape:label="Layer 1"
     inkscape:groupmode="layer"
     id="layer1"
     transform="translate(-91.862082,-148.25392)">
    <path
       inkscape:connector-curvature="0"
       id="path878-3-2"
       style="font-style:normal;font-variant:normal;font-weight:normal;font-stretch:normal;font-size:medium;line-height:1.25;font-family:sans-serif;-inkscape-font-specification:'sans-serif, Normal';font-variant-ligatures:normal;font-variant-caps:normal;font-variant-numeric:normal;font-feature-settings:normal;text-align:start;letter-spacing:0px;word-spacing:0px;writing-mode:lr-tb;text-anchor:start;fill:#000000;fill-opacity:1;stroke:none;stroke-width:1.08413076"
       d="m 97.092162,154.21666 q -0.232903,0.10166 -0.423489,0.19058 -0.186314,0.0889 -0.491246,0.18632 -0.258307,0.0805 -0.563238,0.1355 -0.300674,0.0593 -0.664877,0.0593 -0.686052,0 -1.249293,-0.19058 -0.559005,-0.1948 -0.974024,-0.60559 -0.406554,-0.40233 -0.635232,-1.02061 -0.228681,-0.62253 -0.228681,-1.4441 0,-0.77921 0.2202,-1.39327 0.2202,-0.61406 0.635231,-1.03755 0.402333,-0.41078 0.969788,-0.62676 0.571712,-0.21598 1.266232,-0.21598 0.508189,0 1.01214,0.12279 0.508184,0.1228 1.126477,0.43196 v 0.9952 h -0.06352 q -0.52089,-0.43619 -1.033311,-0.63523 -0.512422,-0.19906 -1.096836,-0.19906 -0.478539,0 -0.863913,0.15668 -0.381151,0.15247 -0.681817,0.47854 -0.292192,0.31764 -0.457372,0.80463 -0.160909,0.48277 -0.160909,1.118 0,0.66488 0.177872,1.14343 0.182103,0.47854 0.465837,0.77921 0.296454,0.31338 0.690285,0.46584 0.398073,0.1482 0.838509,0.1482 0.605586,0 1.134946,-0.2075 0.52936,-0.20749 0.990966,-0.62252 h 0.05929 z" />
    <path
       style="font-style:normal;font-variant:normal;font-weight:normal;font-stretch:normal;font-size:medium;line-height:1.25;font-family:sans-serif;-inkscape-font-specification:'sans-serif, Normal';font-variant-ligatures:normal;font-variant-caps:normal;font-variant-numeric:normal;font-feature-settings:normal;text-align:start;letter-spacing:0px;word-spacing:0px;writing-mode:lr-tb;text-anchor:start;fill:#000000;fill-opacity:1;stroke:none;stroke-width:1.12539589"
       d="m 99.078324,149.2158 h -0.897795 v -0.88986 h 0.897795 z"
       id="path925-8"
       inkscape:connector-curvature="0" />
    <path
       style="font-style:normal;font-variant:normal;font-weight:normal;font-stretch:normal;font-size:medium;line-height:1.25;font-family:sans-serif;-inkscape-font-specification:'sans-serif, Normal';font-variant-ligatures:normal;font-variant-caps:normal;font-variant-numeric:normal;font-feature-settings:normal;text-align:start;letter-spacing:0px;word-spacing:0px;writing-mode:lr-tb;text-anchor:start;fill:#000000;fill-opacity:1;stroke:none;stroke-width:2.02961874"
       d="m 99.027515,167.74723 h -0.796161 v -16.57907 h 0.796161 z"
       id="path880-1-4"
       inkscape:connector-curvature="0" />
    <path
       inkscape:connector-curvature="0"
       id="path865-4-4"
       style="font-style:normal;font-variant:normal;font-weight:normal;font-stretch:normal;font-size:medium;line-height:1.25;font-family:sans-serif;-inkscape-font-specification:'sans-serif, Normal';font-variant-ligatures:normal;font-variant-caps:normal;font-variant-numeric:normal;font-feature-settings:normal;text-align:start;letter-spacing:0px;word-spacing:0px;writing-mode:lr-tb;text-anchor:start;fill:#000000;fill-opacity:1;stroke:none;stroke-width:1.08413076"
       d="m 97.507871,162.40844 h -1.088368 l -2.108971,-2.50705 h -1.18153 v 2.50705 h -0.838511 v -6.30575 h 1.765947 q 0.571712,0 0.952849,0.0762 0.381149,0.072 0.686053,0.26257 0.343044,0.21598 0.533597,0.5463 0.194795,0.32608 0.194795,0.83004 0,0.68182 -0.343042,1.14342 -0.343044,0.45737 -0.944379,0.69028 z m -1.960754,-4.53132 q 0,-0.27106 -0.09741,-0.47855 -0.09318,-0.21176 -0.313377,-0.35574 -0.182103,-0.1228 -0.431958,-0.16939 -0.249865,-0.0508 -0.588647,-0.0508 h -0.986727 v 2.38 h 0.846974 q 0.398072,0 0.694522,-0.0678 0.296453,-0.072 0.503951,-0.26257 0.190565,-0.17787 0.279491,-0.40655 0.09318,-0.2329 0.09318,-0.58865 z" />
    <path
       inkscape:connector-curvature="0"
       id="path869-1"
       style="font-style:normal;font-variant:normal;font-weight:normal;font-stretch:normal;font-size:medium;line-height:1.25;font-family:sans-serif;-inkscape-font-specification:'sans-serif, Normal';font-variant-ligatures:normal;font-variant-caps:normal;font-variant-numeric:normal;font-feature-settings:normal;text-align:start;letter-spacing:0px;word-spacing:0px;writing-mode:lr-tb;text-anchor:start;fill:#000000;fill-opacity:1;stroke:none;stroke-width:1.08413076"
       d="m 101.11666,162.59579 h -0.79615 v -6.58948 h 0.79615 z" />
    <path
       inkscape:connector-curvature="0"
       id="path871-4"
       style="font-style:normal;font-variant:normal;font-weight:normal;font-stretch:normal;font-size:medium;line-height:1.25;font-family:sans-serif;-inkscape-font-specification:'sans-serif, Normal';font-variant-ligatures:normal;font-variant-caps:normal;font-variant-numeric:normal;font-feature-settings:normal;text-align:start;letter-spacing:0px;word-spacing:0px;writing-mode:lr-tb;text-anchor:start;fill:#000000;fill-opacity:1;stroke:none;stroke-width:1.08413076"
       d="m 103.50514,162.59579 h -0.79616 v -6.58948 h 0.79616 z" />
  </g>
</svg>
